<?xml version="1.0" encoding="utf-8"?>
<?xml-stylesheet type="text/xsl" href="rss1.xsl"?>
<rss version="2.0" xmlns:atom="http://www.w3.org/2005/Atom" xmlns:content="http://purl.org/rss/1.0/modules/content/" xmlns:dc="http://purl.org/dc/elements/1.1/" xmlns:media="http://search.yahoo.com/mrss/">
<channel>
 <title>Getty</title>
 <link>http://www.gettyimg.com/</link>
 <atom:link href="http://www.gettyimg.com/" rel="self" type="application/rss+xml" />

 
                <item>
                <title><![CDATA[【Music Videos】PACK - Shakira - Pies Descalzos (1996)]]></title>
                <link><![CDATA[https://sharemania.us/threads/shakira-pies-descalzos-1996.226642/]]></link>
                <description><![CDATA[<article>
<blockquote class="messageText SelectQuoteContainer ugc baseHtml">
<div style="text-align: center"><img src="https://i.postimg.cc/WpMLF3cK/folder1.png" class="bbCodeImage LbImage" alt="[​IMG]" data-url="https://i.postimg.cc/WpMLF3cK/folder1.png" style=""> <br>
<img src="https://i.postimg.cc/JnXwQ7Ds/Shakira-Pies-Descalzos-Sue-os-Blancos-1996-mp4-thumbs.jpg" class="bbCodeImage LbImage" alt="[​IMG]" data-url="https://i.postimg.cc/JnXwQ7Ds/Shakira-Pies-Descalzos-Sue-os-Blancos-1996-mp4-thumbs.jpg" style=""> <br>
<img src="https://i.postimg.cc/J0CfYwZP/Shakira-Pies-Descalzos-Sue-os-Blancos-Meme-s-Super-Club-Radio-Mix-1996-fan-Made-mp4-thumbs.jpg" class="bbCodeImage LbImage" alt="[​IMG]" data-url="https://i.postimg.cc/J0CfYwZP/Shakira-Pies-Descalzos-Sue-os-Blancos-Meme-s-Super-Club-Radio-Mix-1996-fan-Made-mp4-thumbs.jpg" style=""> <br>
<img src="https://i.postimg.cc/zvw99dk5/Shakira-P-s-Descal-os-1996-fan-Made-mp4-thumbs.jpg" class="bbCodeImage LbImage" alt="[​IMG]" data-url="https://i.postimg.cc/zvw99dk5/Shakira-P-s-Descal-os-1996-fan-Made-mp4-thumbs.jpg" style=""> <br>
<div class="bbCodeBlock bbCodeVfcHH HiddenContent">
<div class="attribution type">Hidden Content:</div>
<blockquote>You must either reply or click 'Like' to see the hidden information contained here.</blockquote>
</div></div>
<div class="messageTextEndMarker">&nbsp;</div>
</blockquote>
</article>]]></description>
                <author><![CDATA[Fan Made]]></author>
                </item>

                
                <item>
                <title><![CDATA[【Cinema Center】MOVIE - Miguel.Wants.to.Fight.2023.1080p.HULU.WEB-DL.DDP5.1.H.264-Samuel]]></title>
                <link><![CDATA[https://sharemania.us/threads/miguel-wants-to-fight-2023-1080p-hulu-web-dl-ddp5-1-h-264-samuel.226643/]]></link>
                <description><![CDATA[<article>
<blockquote class="messageText SelectQuoteContainer ugc baseHtml">
<div style="text-align: center"><b><span style="font-size: 26px">Miguel Wants to Fight</span></b><br>
<img src="https://i.imgur.com/7KMpWaP.jpg" class="bbCodeImage LbImage" alt="[​IMG]" data-url="https://i.imgur.com/7KMpWaP.jpg" style=""><br>
<b><a href="https://i.imgur.com/pwGpJ0u.jpg" target="_blank" class="externalLink" rel="nofollow">Alternate Artwork</a></b><br>
<br>
<b>Starring:</b> Tyler Dean Flores, Christian Vunipola, Imani Lewis • <b>Director:</b> Oz Rodriguez<br>
<br>
<div class="bbCodeBlock bbCodeQuote">
<aside>
<blockquote class="quoteContainer"><div class="quote"><b><span style="font-size: 15px"><span style="font-family: 'Arial'">Description</span></span></b><br>
When a combination of events turn his life upside down, Miguel and his three best friends enter into a series of hilarious misadventures as he tries to get into his first ever fight.</div><div class="quoteExpand">Click to expand...</div></blockquote>
</aside>
</div>
<div class="bbCodeBlock bbCodeQuote">
<aside>
<blockquote class="quoteContainer"><div class="quote"><b><span style="font-size: 15px"><span style="font-family: 'Arial'">More Information</span></span></b><br>
<b>Starring:</b> Tyler Dean Flores, Christian Vunipola, Imani Lewis, Suraj Partha, Raul Castillo<br>
<b>Director:</b> Oz Rodriguez<br>
<br>
TVMA • Comedy • Movie • 2023<br>
5.1 • DA • HD</div><div class="quoteExpand">Click to expand...</div></blockquote>
</aside>
</div>
<div class="bbCodeBlock bbCodeQuote">
<aside>
<blockquote class="quoteContainer"><div class="quote"><b><span style="font-size: 15px">Source</span></b><br>
<img src="https://i.imgur.com/4uiLEFv.png" class="bbCodeImage LbImage" alt="[​IMG]" data-url="https://i.imgur.com/4uiLEFv.png" style=""></div><div class="quoteExpand">Click to expand...</div></blockquote>
</aside>
</div>
<div class="bbCodeBlock bbCodeQuote">
<aside>
<blockquote class="quoteContainer"><div class="quote"><b><span style="font-size: 15px">Release Name</span></b><br>
Miguel.Wants.to.Fight.2023.1080p.HULU.WEB-DL.DDP5.1.H.264-Samuel</div><div class="quoteExpand">Click to expand...</div></blockquote>
</aside>
</div>
<div class="ToggleTriggerAnchor bbCodeSpoilerContainer">
<button type="button" class="button bbCodeSpoilerButton ToggleTrigger Tooltip JsOnly" data-target="> .SpoilerTarget"><span>Spoiler: <span class="SpoilerTitle">Media Information</span></span></button>
<div class="SpoilerTarget bbCodeSpoilerText">General<br>
Complete name : Miguel.Wants.to.Fight.2023.1080p.HULU.WEB-DL.DDP5.1.H.264-Samuel.mkv<br>
Format : Matroska<br>
Format version : Version 4<br>
File size : 3.32 GiB<br>
Duration : 1 h 15 min<br>
Overall bit rate : 6 316 kb/s<br>
Frame rate : 24.000 FPS<br>
Encoded date : 2023-08-19 09:37:33 UTC<br>
Writing application : mkvmerge v72.0.0 ('Minuano (Six-eight)') 64-bit<br>
Writing library : libebml v1.4.4 + libmatroska v1.7.1<br>
<br>
Video<br>
ID : 1<br>
Format : AVC<br>
Format/Info : Advanced Video Codec<br>
Format profile : High@L4<br>
Format settings : CABAC / 4 Ref Frames<br>
Format settings, CABAC : Yes<br>
Format settings, Reference frames : 4 frames<br>
Codec ID : V_MPEG4/ISO/AVC<br>
Duration : 1 h 15 min<br>
Bit rate : 5 481 kb/s<br>
Width : 1 920 pixels<br>
Height : 1 080 pixels<br>
Display aspect ratio : 16:9<br>
Frame rate mode : Constant<br>
Frame rate : 24.000 FPS<br>
Color space : YUV<br>
Chroma subsampling : 4:2:0<br>
Bit depth : 8 bits<br>
Scan type : Progressive<br>
Bits/(Pixel*Frame) : 0.110<br>
Stream size : 2.88 GiB (87%)<br>
Default : Yes<br>
Forced : No<br>
<br>
Audio #1<br>
ID : 2<br>
Format : E-AC-3<br>
Format/Info : Enhanced AC-3<br>
Commercial name : Dolby Digital Plus<br>
Codec ID : A_EAC3<br>
Duration : 1 h 15 min<br>
Bit rate mode : Constant<br>
Bit rate : 256 kb/s<br>
Channel(s) : 6 channels<br>
Channel layout : L R C LFE Ls Rs<br>
Sampling rate : 48.0 kHz<br>
Frame rate : 31.250 FPS (1536 SPF)<br>
Compression mode : Lossy<br>
Stream size : 138 MiB (4%)<br>
Language : English<br>
Service kind : Complete Main<br>
Default : Yes<br>
Forced : No<br>
<br>
Audio #2<br>
ID : 3<br>
Format : E-AC-3<br>
Format/Info : Enhanced AC-3<br>
Commercial name : Dolby Digital Plus<br>
Codec ID : A_EAC3<br>
Duration : 1 h 15 min<br>
Bit rate mode : Constant<br>
Bit rate : 256 kb/s<br>
Channel(s) : 6 channels<br>
Channel layout : L R C LFE Ls Rs<br>
Sampling rate : 48.0 kHz<br>
Frame rate : 31.250 FPS (1536 SPF)<br>
Compression mode : Lossy<br>
Stream size : 138 MiB (4%)<br>
Language : English<br>
Service kind : Complete Main<br>
Default : No<br>
Forced : No<br>
<br>
Audio #3<br>
ID : 4<br>
Format : E-AC-3<br>
Format/Info : Enhanced AC-3<br>
Commercial name : Dolby Digital Plus<br>
Codec ID : A_EAC3<br>
Duration : 1 h 15 min<br>
Bit rate mode : Constant<br>
Bit rate : 256 kb/s<br>
Channel(s) : 6 channels<br>
Channel layout : L R C LFE Ls Rs<br>
Sampling rate : 48.0 kHz<br>
Frame rate : 31.250 FPS (1536 SPF)<br>
Compression mode : Lossy<br>
Stream size : 138 MiB (4%)<br>
Language : English<br>
Service kind : Complete Main<br>
Default : No<br>
Forced : No<br>
<br>
Audio #4<br>
ID : 5<br>
Format : AAC LC SBR<br>
Format/Info : Advanced Audio Codec Low Complexity with Spectral Band Replication<br>
Commercial name : HE-AAC<br>
Format settings : Explicit<br>
Codec ID : A_AAC-2<br>
Duration : 1 h 15 min<br>
Bit rate : 64.0 kb/s<br>
Channel(s) : 2 channels<br>
Channel layout : L R<br>
Sampling rate : 48.0 kHz<br>
Frame rate : 23.438 FPS (2048 SPF)<br>
Compression mode : Lossy<br>
Stream size : 34.4 MiB (1%)<br>
Title : Audio Description<br>
Language : English<br>
Default : No<br>
Forced : No<br>
<br>
Audio #5<br>
ID : 6<br>
Format : E-AC-3<br>
Format/Info : Enhanced AC-3<br>
Commercial name : Dolby Digital Plus<br>
Codec ID : A_EAC3<br>
Duration : 5 s 88 ms<br>
Bit rate mode : Constant<br>
Bit rate : 128 kb/s<br>
Channel(s) : 2 channels<br>
Channel layout : L R<br>
Sampling rate : 48.0 kHz<br>
Frame rate : 31.250 FPS (1536 SPF)<br>
Compression mode : Lossy<br>
Stream size : 79.5 KiB (0%)<br>
Language : Norwegian<br>
Service kind : Complete Main<br>
Default : No<br>
Forced : No<br>
<br>
Text #1<br>
ID : 7<br>
Format : UTF-8<br>
Codec ID : S_TEXT/UTF8<br>
Codec ID/Info : UTF-8 Plain Text<br>
Duration : 1 h 14 min<br>
Bit rate : 104 b/s<br>
Frame rate : 0.337 FPS<br>
Count of elements : 1505<br>
Stream size : 56.8 KiB (0%)<br>
Title : SDH<br>
Language : English<br>
Default : No<br>
Forced : No<br>
<br>
Text #2<br>
ID : 8<br>
Format : UTF-8<br>
Codec ID : S_TEXT/UTF8<br>
Codec ID/Info : UTF-8 Plain Text<br>
Duration : 1 h 10 min<br>
Bit rate : 99 b/s<br>
Frame rate : 0.318 FPS<br>
Count of elements : 1351<br>
Stream size : 51.7 KiB (0%)<br>
Language : Spanish<br>
Default : No<br>
Forced : No<br>
<br>
Menu<br>
01:11:02.006 : en:Credits</div>
</div><br>
<b>Screenshots</b><br>
<img src="https://i.imgur.com/YCwa1bN.png" class="bbCodeImage LbImage" alt="[​IMG]" data-url="https://i.imgur.com/YCwa1bN.png" style=""><br>
<br>
<b>Download</b><br>
<div class="bbCodeBlock bbCodeVfcHH HiddenContent">
<div class="attribution type">Hidden Content:</div>
<blockquote>You must reply before you can see the hidden data contained here.</blockquote>
</div></div>
<div class="messageTextEndMarker">&nbsp;</div>
</blockquote>
</article>]]></description>
                <author><![CDATA[Samuel]]></author>
                </item>

                </channel></rss>